# xmcd CD database file
# Copyright (C) 1996 Ti Kan
#
# Track frame offsets:
# 	150
# 	15492
# 	32295
# 	48815
# 	65122
# 	83455
# 	90000
# 	112825
# 	129090
# 	146812
#
# Disc length: 2191 seconds
#
# Revision: 1
# Processed by: cddbd v1.4b41PL1 Copyright (c) Steve Scherf et al.
# Submitted via: DiscPlay 3.4.1
#
DISCID=65088d0a
DTITLE=BlackHawk - BlackHawk
DYEAR=1900
DGENRE=
TTITLE0=Goodbye Says It All
TTITLE1=Down in Flames
TTITLE2=Every Once in a While
TTITLE3=I Sure Can Smell the Rain
TTITLE4=That's Just About Right
TTITLE5=One More Heartache
TTITLE6=Love Like This
TTITLE7=Between Ragged and Wrong
TTITLE8=Stone by Stone
TTITLE9=Let 'em Whirl
EXTD=
EXTT0=
EXTT1=
EXTT2=
EXTT3=
EXTT4=
EXTT5=
EXTT6=
EXTT7=
EXTT8=
EXTT9=
PLAYORDER=
